<?xml version="1.0" encoding="UTF-8"?>
<svg xmlns="http://www.w3.org/2000/svg" width="884" height="318" viewBox="0 0 884 318">
  <g transform="translate(0,318) scale(0.1,-0.1)" fill="none" stroke="#000" stroke-width="45" stroke-linejoin="round" stroke-linecap="round" opacity="0.3">
    <path d="M70 1591 l0 -1521 260 0 260 0 0 585 0 585 223 0 c304 0 469 28 650 109 305 137 517 422 544 729 l6 72 876 0 876 -1 24 -52 c34 -72 125 -161 203 -197 231 -107 502 -19 613 199 l25 51 695 0 695 0 0 -1040 0 -1040 250 0 250 0 0 1040 0 1040 806 0 805 0 -59 -72 c-32 -40 -347 -432 -700 -870 l-642 -797 0 -171 0 -170 1020 0 1020 0 0 170 0 170 -705 0 c-388 0 -705 2 -705 5 0 2 317 394 705 870 l705 866 0 160 0 159 -1122 2 -1123 3 -3 318 -2 317 -250 0 -250 0 -2 -317 -3 -318 -691 -3 -692 -2 -27 56 c-109 222 -410 311 -637 187 -62 -34 -148 -124 -182 -191 l-26 -52 -897 2 -896 3 -41 80 c-142 279 -375 448 -723 526 -92 21 -128 22 -615 26 l-518 4 0 -1520z m1055 995 c211 -59 353 -192 384 -359 20 -111 -22 -231 -115 -321 -133 -132 -344 -186 -660 -171 l-141 7 -6 202 c-4 110 -7 306 -7 434 l0 234 243 -4 c187 -4 256 -9 302 -22z"/>
    <path d="M2540 1926 c-173 -37 -331 -120 -458 -240 -131 -125 -221 -279 -262 -447 -108 -451 103 -895 516 -1085 172 -80 391 -104 581 -65 346 72 609 312 709 648 32 108 44 310 24 429 -56 349 -312 637 -655 739 -76 23 -113 28 -240 31 -102 2 -171 -1 -215 -10z m300 -498 c164 -49 291 -192 320 -359 31 -180 -79 -377 -260 -463 -60 -29 -73 -31 -170 -31 -100 0 -109 2 -181 36 -184 88 -290 290 -250 478 53 246 310 408 541 339z"/>
    <path d="M3870 890 l0 -820 325 0 325 0 0 820 0 820 -325 0 -325 0 0 -820z"/>
    <path d="M4878 1533 l-278 -3 0 -110 0 -110 275 0 275 0 0 -620 0 -620 325 0 325 0 0 728 0 729 -232 6 c-128 4 -273 6 -323 5 -49 -2 -215 -4 -367 -5z"/>
  </g>
  <g transform="translate(0,318) scale(0.1,-0.1)" fill="#fff" stroke="#000" stroke-width="35" stroke-linejoin="round" stroke-linecap="round">
    <path d="M70 1591 l0 -1521 260 0 260 0 0 585 0 585 223 0 c304 0 469 28 650 109 305 137 517 422 544 729 l6 72 876 0 876 -1 24 -52 c34 -72 125 -161 203 -197 231 -107 502 -19 613 199 l25 51 695 0 695 0 0 -1040 0 -1040 250 0 250 0 0 1040 0 1040 806 0 805 0 -59 -72 c-32 -40 -347 -432 -700 -870 l-642 -797 0 -171 0 -170 1020 0 1020 0 0 170 0 170 -705 0 c-388 0 -705 2 -705 5 0 2 317 394 705 870 l705 866 0 160 0 159 -1122 2 -1123 3 -3 318 -2 317 -250 0 -250 0 -2 -317 -3 -318 -691 -3 -692 -2 -27 56 c-109 222 -410 311 -637 187 -62 -34 -148 -124 -182 -191 l-26 -52 -897 2 -896 3 -41 80 c-142 279 -375 448 -723 526 -92 21 -128 22 -615 26 l-518 4 0 -1520z m1055 995 c211 -59 353 -192 384 -359 20 -111 -22 -231 -115 -321 -133 -132 -344 -186 -660 -171 l-141 7 -6 202 c-4 110 -7 306 -7 434 l0 234 243 -4 c187 -4 256 -9 302 -22z"/>
    <path d="M2540 1926 c-173 -37 -331 -120 -458 -240 -131 -125 -221 -279 -262 -447 -108 -451 103 -895 516 -1085 172 -80 391 -104 581 -65 346 72 609 312 709 648 32 108 44 310 24 429 -56 349 -312 637 -655 739 -76 23 -113 28 -240 31 -102 2 -171 -1 -215 -10z m300 -498 c164 -49 291 -192 320 -359 31 -180 -79 -377 -260 -463 -60 -29 -73 -31 -170 -31 -100 0 -109 2 -181 36 -184 88 -290 290 -250 478 53 246 310 408 541 339z"/>
    <path d="M3870 890 l0 -820 325 0 325 0 0 820 0 820 -325 0 -325 0 0 -820z"/>
    <path d="M4878 1533 l-278 -3 0 -110 0 -110 275 0 275 0 0 -620 0 -620 325 0 325 0 0 728 0 729 -232 6 c-128 4 -273 6 -323 5 -49 -2 -215 -4 -367 -5z"/>
  </g>
</svg>